<svg xmlns="http://www.w3.org/2000/svg" xmlns:xlink="http://www.w3.org/1999/xlink" xmlns:svgjs="http://svgjs.com/svgjs" width="288" height="288" version="1.1" style=""><rect id="backgroundrect" width="100%" height="100%" x="0" y="0" fill="none" stroke="none"/><defs id="SvgjsDefs1002"/><g className="currentLayer" style=""><title>Layer 1</title><g id="SvgjsG1008" className="selected" fill="#0a0050" fill-opacity="1"><svg xmlns="http://www.w3.org/2000/svg" width="288" height="288" viewBox="0 0 24 24" id="svg_1" x="0.6172839403152466" y="0"><g fill="#0a0050" className="color000 svgShape" id="svg_2" fill-opacity="1"><path fill="#0a0050" d="M22,12 A10,10 0 1 1 12,2 A10,10 0 0 1 22,12 z" opacity=".4" className="colorbbc6e9 svgShape" id="svg_3" fill-opacity="1"/><path fill="#0a0050" d="M16,11.25 H12.75 V8 A0.7500000000000002,0.7500000000000002 0 0 0 11.25,8 V11.25 H8 a0.7500000000000002,0.7500000000000002 0 0 0 0,1.5 H11.25 V16 a0.7500000000000002,0.7500000000000002 0 0 0 1.5,0 V12.75 H16 a0.7500000000000002,0.7500000000000002 0 0 0 0,-1.5 z" data-name="Vector" className="colorbbc6e9 svgShape" id="svg_4" fill-opacity="1"/><path fill="#0a0050" d="M0,0 H24 V24 H0 z" data-name="Vector" opacity="0" id="svg_5" fill-opacity="1"/></g></svg></g></g></svg>