<svg xmlns="http://www.w3.org/2000/svg" width="28.162" height="20.738" viewBox="0 0 28.162 20.738">
  <g id="live" transform="translate(-1.999 -4.646)">
    <g id="ic_fluent_live_24_filled" transform="translate(1.999 4.646)">
      <path id="_-Color" data-name="🎨-Color" d="M8.114,5.058a1.408,1.408,0,0,1,0,1.991,11.266,11.266,0,0,0,0,15.932,1.408,1.408,0,1,1-1.991,1.991,14.081,14.081,0,0,1,0-19.914A1.408,1.408,0,0,1,8.114,5.058Zm17.923,0a14.081,14.081,0,0,1,0,19.914,1.408,1.408,0,0,1-1.991-1.991,11.266,11.266,0,0,0,0-15.932,1.408,1.408,0,0,1,1.991-1.991ZM12.29,9.1a1.408,1.408,0,0,1,0,1.991,5.519,5.519,0,0,0,0,7.8A1.408,1.408,0,1,1,10.3,20.89,8.334,8.334,0,0,1,10.3,9.1,1.408,1.408,0,0,1,12.29,9.1Zm9.8,0a8.334,8.334,0,0,1,0,11.786A1.408,1.408,0,1,1,20.095,18.9a5.519,5.519,0,0,0,0-7.8A1.408,1.408,0,1,1,22.086,9.1ZM16.193,13a2.112,2.112,0,1,1-2.112,2.112A2.112,2.112,0,0,1,16.193,13Z" transform="translate(-1.999 -4.646)" fill="#32a624"/>
    </g>
  </g>
</svg>
