<svg xmlns="http://www.w3.org/2000/svg" width="26" height="26" viewBox="0 0 26 26">
  <g id="sun-svgrepo-com" transform="translate(-2 -2)">
    <path id="Path_95" data-name="Path 95" d="M17,13a4,4,0,1,1-4-4A4,4,0,0,1,17,13Z" transform="translate(2 2)" fill="#fff" opacity="0.1"/>
    <path id="Path_96" data-name="Path 96" d="M17,13a4,4,0,1,1-4-4A4,4,0,0,1,17,13Z" transform="translate(2 2)" fill="none" stroke="#fff" stroke-width="2"/>
    <path id="Path_97" data-name="Path 97" d="M12,5.667V3" transform="translate(3 0)" fill="none" stroke="#fff" stroke-linecap="round" stroke-linejoin="round" stroke-width="2"/>
    <path id="Path_98" data-name="Path 98" d="M17,7.667,19.667,5" transform="translate(4.667 0.667)" fill="none" stroke="#fff" stroke-linecap="round" stroke-linejoin="round" stroke-width="2"/>
    <path id="Path_99" data-name="Path 99" d="M19,12h2.667" transform="translate(5.333 3)" fill="none" stroke="#fff" stroke-linecap="round" stroke-linejoin="round" stroke-width="2"/>
    <path id="Path_100" data-name="Path 100" d="M17,17l2.667,2.667" transform="translate(4.667 4.667)" fill="none" stroke="#fff" stroke-linecap="round" stroke-linejoin="round" stroke-width="2"/>
    <path id="Path_101" data-name="Path 101" d="M12,19v2.667" transform="translate(3 5.333)" fill="none" stroke="#fff" stroke-linecap="round" stroke-linejoin="round" stroke-width="2"/>
    <path id="Path_102" data-name="Path 102" d="M7.667,17,5,19.667" transform="translate(0.667 4.667)" fill="none" stroke="#fff" stroke-linecap="round" stroke-linejoin="round" stroke-width="2"/>
    <path id="Path_103" data-name="Path 103" d="M5.667,12H3" transform="translate(0 3)" fill="none" stroke="#fff" stroke-linecap="round" stroke-linejoin="round" stroke-width="2"/>
    <path id="Path_104" data-name="Path 104" d="M5,5,7.667,7.667" transform="translate(0.667 0.667)" fill="none" stroke="#fff" stroke-linecap="round" stroke-linejoin="round" stroke-width="2"/>
  </g>
</svg>
