<svg xmlns="http://www.w3.org/2000/svg" width="20.001" height="28.002" viewBox="0 0 20.001 28.002">
  <g id="baccarat" transform="translate(-2 -2.001)">
    <g id="Group_231" data-name="Group 231">
      <path id="Subtraction_10" data-name="Subtraction 10" d="M11003.227,17973.881h-.024l-.013,0h-10.014a.441.441,0,0,1-.051,0,4.947,4.947,0,0,1-4.947-5v-18a4.947,4.947,0,0,1,4.947-5,.441.441,0,0,1,.051,0h10a.441.441,0,0,1,.051,0,4.953,4.953,0,0,1,4.951,5v18a4.953,4.953,0,0,1-4.952,5Zm1.953-6a1,1,0,0,0-1,1v2a1,1,0,0,0,2,0v-2A1,1,0,0,0,11005.18,17967.881Zm-10.135-11.668a2.348,2.348,0,0,0-1.215.3,3.078,3.078,0,0,0-1.476,2.619c0,1.2.935,2.7,2.7,4.313a23.657,23.657,0,0,0,2.874,2.225.213.213,0,0,0,.117.031.2.2,0,0,0,.117-.031c.057-.035,5.58-3.559,5.58-6.537a3.071,3.071,0,0,0-1.479-2.619,2.343,2.343,0,0,0-1.212-.289,3.971,3.971,0,0,0-2.794,1.191c-.1.105-.156.148-.21.148s-.1-.041-.172-.113l-.038-.035A4.148,4.148,0,0,0,10995.045,17956.213Zm-3.927-8.336a.947.947,0,0,0-.942,1v2a.943.943,0,0,0,.953,1h.1a.943.943,0,0,0,.952-1v-2a.958.958,0,0,0-.275-.727.946.946,0,0,0-.666-.277h-.029l-.03,0-.03,0Z" transform="translate(-10986.178 -17943.879)" fill="#7dd2f0"/>
    </g>
  </g>
</svg>
