<svg xmlns="http://www.w3.org/2000/svg" width="20.001" height="28.002" viewBox="0 0 20.001 28.002">
  <g id="blackjack" transform="translate(-2 -2.001)">
    <g id="Group_231" data-name="Group 231">
      <path id="Subtraction_10" data-name="Subtraction 10" d="M11003.227,17973.881h-.024l-.013,0h-10.014a.441.441,0,0,1-.051,0,4.947,4.947,0,0,1-4.947-5v-18a4.947,4.947,0,0,1,4.947-5,.441.441,0,0,1,.051,0h10a.441.441,0,0,1,.051,0,4.953,4.953,0,0,1,4.951,5v18a4.953,4.953,0,0,1-4.952,5Zm1.953-6a1,1,0,0,0-1,1v2a1,1,0,0,0,2,0v-2A1,1,0,0,0,11005.18,17967.881Zm-8.341-4.715v0l-.653,1.961a.419.419,0,0,0,.063.393.429.429,0,0,0,.352.184h2.9a.426.426,0,0,0,.356-.184.432.432,0,0,0,.063-.393l-.654-1.963a3.065,3.065,0,0,0,4.484-2.715c0-2.854-5.008-6.172-5.579-6.541a.219.219,0,0,0-.117-.033.222.222,0,0,0-.118.033l-.016.008c-.928.609-5.561,3.789-5.561,6.533a3.068,3.068,0,0,0,4.482,2.717Zm-5.721-15.289a.947.947,0,0,0-.942,1v2a.943.943,0,0,0,.953,1h.1a.943.943,0,0,0,.952-1v-2a.958.958,0,0,0-.275-.727.946.946,0,0,0-.666-.277h-.029l-.03,0-.03,0Z" transform="translate(-10986.178 -17943.879)" fill="#f1a015"/>
    </g>
  </g>
</svg>
