<svg xmlns="http://www.w3.org/2000/svg" width="24.021" height="30.524" viewBox="0 0 24.021 30.524">
  <g id="classic" transform="translate(-14.802 -3.567)">
    <path id="Path_373" data-name="Path 373" d="M33.171,76.411l-3.3-.581a4.974,4.974,0,0,0-.538.6,7.512,7.512,0,0,0-.791,1.367l-7.891-1.577a6.809,6.809,0,0,0-2.659,6.952,6.273,6.273,0,0,0,6.369,5.092,7.16,7.16,0,0,0,6.1-3.034s4.066,3.044,7.984.423c4.006-2.679,2.549-7.919,1.617-8.625C39.25,76.411,33.171,76.411,33.171,76.411Z" transform="translate(-2.284 -54.171)" fill="#af0c1a"/>
    <path id="Path_374" data-name="Path 374" d="M27.871,73.129c-3.5-.028-5.378,1.808-5.528,4.146A5.278,5.278,0,0,0,27.59,82.8c3.921.253,6.459-2.679,6.094-5.1A5.58,5.58,0,0,0,27.871,73.129Z" transform="translate(-5.646 -52.146)" fill="#dc0d27"/>
    <path id="Path_375" data-name="Path 375" d="M69.047,76.141a14.122,14.122,0,0,0-1.242-3.215,16.219,16.219,0,0,0-1.945-2.651,6.714,6.714,0,0,1,10.663,1.863S76.19,75,74.039,76.143C71.022,77.748,69.047,76.141,69.047,76.141Z" transform="translate(-38.276 -48.614)" fill="#dc0d27"/>
    <path id="Path_376" data-name="Path 376" d="M71.216,75c-.356.33.008,1.555,1.107,2.288s2.221.926,2.674.138-.14-1.362-.846-1.637a3.93,3.93,0,0,1-1.42-.561C72.195,74.806,71.614,74.628,71.216,75Z" transform="translate(-42.192 -53.397)" fill="#ffb2b4"/>
    <path id="Path_377" data-name="Path 377" d="M89.218,77.9c-.2.471.493,1.009,1.009.751s.516-.9-.15-1.094C89.506,77.4,89.323,77.65,89.218,77.9Z" transform="translate(-55.76 -55.43)" fill="#ffb2b4"/>
    <path id="Path_378" data-name="Path 378" d="M41.163,90.528c.305.786,1.417.323,2.038-.043s.836-.859.643-1.329-1.052-.558-1.78-.193C41.474,89.259,40.863,89.757,41.163,90.528Z" transform="translate(-19.702 -63.847)" fill="#ffb2b4"/>
    <path id="Path_379" data-name="Path 379" d="M27.952,77.195a1.782,1.782,0,0,0-.879,1.975c.386.879.836.816,1.117,1.267s.706,1.334,1.309,1.244c.859-.128.794-1.244.516-1.953a5.437,5.437,0,0,1-.493-1.717C29.477,77.345,29.477,76.293,27.952,77.195Z" transform="translate(-9.153 -54.932)" fill="#ffb2b4"/>
    <path id="Path_380" data-name="Path 380" d="M14.894,17.832a1.4,1.4,0,0,0,.879,1.76,3.583,3.583,0,0,0,1.42.338A18.756,18.756,0,0,1,20.3,25.578a26.949,26.949,0,0,1,1.184,6.9,3.075,3.075,0,0,0,.068,1.557.9.9,0,0,0,1.352.035,3.142,3.142,0,0,0-.035-1.557,30.314,30.314,0,0,0-1.082-7.035,19.463,19.463,0,0,0-2.233-4.9,19.5,19.5,0,0,1,7,3.688c4.163,3.82,4.6,6.079,4.6,6.079a3.63,3.63,0,0,0,.293,1.462c.27.338,1.507.135,1.542-.373a4.711,4.711,0,0,0-.318-1.435s-1.041-3.713-5.505-7.088a27.127,27.127,0,0,0-8.933-4.2,3.991,3.991,0,0,0-1.319-1.184C16.211,17.156,15.2,17.043,14.894,17.832Z" transform="translate(0 -10.251)" fill="#759937"/>
    <path id="Path_381" data-name="Path 381" d="M26.75,8.512c-.135-.305.368-1.958,2.872-3.277s5.355-1.722,9.035-1.662c4.133.068,6.054.7,6.131.949s-1.92,1.632-1.92,1.632L36.253,8.107l-6.259.811Z" transform="translate(-8.942 0)" fill="#366918"/>
    <path id="Path_382" data-name="Path 382" d="M36.972,13.088a12.3,12.3,0,0,0,8.044-5.28,3.107,3.107,0,0,0-.771.138c-.441.1-4.3,1.192-6.259,1.725a60.968,60.968,0,0,1-6.156,1.284c-1.49.2-4.769.744-4.769.744a14.581,14.581,0,0,0,9.912,1.389Z" transform="translate(-9.189 -3.174)" fill="#518e30"/>
  </g>
</svg>
