<svg xmlns="http://www.w3.org/2000/svg" width="30.035" height="30.035" viewBox="0 0 30.035 30.035">
  <g id="gameshows" transform="translate(-14.982 -8.281)">
    <g id="gameshows-2" data-name="gameshows" transform="translate(14.982 8.281)">
      <circle id="Ellipse_42" data-name="Ellipse 42" cx="14.495" cy="14.495" r="14.495" transform="translate(0.523 0.523)" fill="#f1a015"/>
      <path id="Path_528" data-name="Path 528" d="M79.286,79.286,68.273,72.928a12.744,12.744,0,0,1,4.654-4.654Z" transform="translate(-64.268 -64.269)" fill="#ffe669"/>
      <path id="Path_529" data-name="Path 529" d="M153.963,39.207V51.925L147.6,40.912A12.6,12.6,0,0,1,153.963,39.207Z" transform="translate(-138.945 -36.907)" fill="#ffcd64"/>
      <path id="Path_530" data-name="Path 530" d="M262.359,40.912,256,51.925V39.207A12.6,12.6,0,0,1,262.359,40.912Z" transform="translate(-240.982 -36.907)" fill="#ffaa64"/>
      <path id="Path_531" data-name="Path 531" d="M267.013,72.927,256,79.286l6.359-11.013A12.745,12.745,0,0,1,267.013,72.927Z" transform="translate(-240.982 -64.268)" fill="#ff8c64"/>
      <path id="Path_532" data-name="Path 532" d="M268.718,153.963H256l11.013-6.359A12.6,12.6,0,0,1,268.718,153.963Z" transform="translate(-240.982 -138.945)" fill="#ff6469"/>
      <path id="Path_533" data-name="Path 533" d="M268.718,256a12.6,12.6,0,0,1-1.705,6.359L256,256Z" transform="translate(-240.982 -240.982)" fill="#e18caf"/>
      <path id="Path_534" data-name="Path 534" d="M267.013,262.359a12.745,12.745,0,0,1-4.654,4.654L256,256Z" transform="translate(-240.982 -240.982)" fill="#c3b4fa"/>
      <path id="Path_535" data-name="Path 535" d="M262.359,267.013A12.6,12.6,0,0,1,256,268.718V256Z" transform="translate(-240.982 -240.982)" fill="#7dd2f0"/>
      <path id="Path_536" data-name="Path 536" d="M153.963,256v12.718a12.6,12.6,0,0,1-6.359-1.705Z" transform="translate(-138.945 -240.982)" fill="#7de6c3"/>
      <path id="Path_537" data-name="Path 537" d="M79.286,256l-6.359,11.013a12.746,12.746,0,0,1-4.654-4.654Z" transform="translate(-64.268 -240.982)" fill="#96e393"/>
      <path id="Path_538" data-name="Path 538" d="M51.925,256l-11.013,6.359A12.6,12.6,0,0,1,39.207,256Z" transform="translate(-36.907 -240.982)" fill="#afe164"/>
      <path id="Path_539" data-name="Path 539" d="M51.925,153.963H39.207a12.6,12.6,0,0,1,1.705-6.359Z" transform="translate(-36.907 -138.945)" fill="#d7e664"/>
      <g id="Group_343" data-name="Group 343" transform="translate(3.847 3.847)" opacity="0.5">
        <circle id="Ellipse_43" data-name="Ellipse 43" cx="0.753" cy="0.753" r="0.753" transform="translate(20.837 13.21)" fill="#fff"/>
        <circle id="Ellipse_44" data-name="Ellipse 44" cx="0.753" cy="0.753" r="0.753" transform="translate(0 7.627)" fill="#fff"/>
        <circle id="Ellipse_45" data-name="Ellipse 45" cx="0.752" cy="0.752" r="0.752" transform="translate(13.21)" fill="#fff"/>
        <circle id="Ellipse_46" data-name="Ellipse 46" cx="0.753" cy="0.753" r="0.753" transform="translate(7.627 20.837)" fill="#fff"/>
        <circle id="Ellipse_47" data-name="Ellipse 47" cx="0.753" cy="0.753" r="0.753" transform="translate(18.045 18.045)" fill="#fff"/>
        <circle id="Ellipse_48" data-name="Ellipse 48" cx="0.752" cy="0.752" r="0.752" transform="translate(2.792 2.792)" fill="#fff"/>
        <circle id="Ellipse_49" data-name="Ellipse 49" cx="0.753" cy="0.753" r="0.753" transform="translate(18.045 2.792)" fill="#fff"/>
        <circle id="Ellipse_50" data-name="Ellipse 50" cx="0.753" cy="0.753" r="0.753" transform="translate(2.792 18.045)" fill="#fff"/>
        <circle id="Ellipse_51" data-name="Ellipse 51" cx="0.753" cy="0.753" r="0.753" transform="translate(0 13.21)" fill="#fff"/>
        <circle id="Ellipse_52" data-name="Ellipse 52" cx="0.753" cy="0.753" r="0.753" transform="translate(20.837 7.627)" fill="#fff"/>
        <circle id="Ellipse_53" data-name="Ellipse 53" cx="0.752" cy="0.752" r="0.752" transform="translate(7.627)" fill="#fff"/>
        <circle id="Ellipse_54" data-name="Ellipse 54" cx="0.753" cy="0.753" r="0.753" transform="translate(13.21 20.837)" fill="#fff"/>
      </g>
      <path id="Path_540" data-name="Path 540" d="M131.263,129.408V128h4.224v4.224h-1.408v-1.488L123.318,141.5l.664.664-1.327,1.327L120,140.832l1.327-1.327.664.664,10.76-10.76Z" transform="translate(-112.961 -120.491)" fill="#4a3207"/>
      <path id="Path_541" data-name="Path 541" d="M25.637,4.4A15.018,15.018,0,0,0,4.4,25.637,15.018,15.018,0,0,0,25.637,4.4Zm1.8,17.247-.806-.465a13.053,13.053,0,0,0,1.519-5.693h.939A13.982,13.982,0,0,1,27.436,21.645ZM9.067,26.265c.008-.011.016-.023.024-.035a.485.485,0,0,0,.023-.045l4.434-7.646a.467.467,0,0,0,.044-.1l.957-.957V27.21a12.133,12.133,0,0,1-3.827-.768.469.469,0,1,0-.331.879,13.069,13.069,0,0,0,4.157.829v.939a13.983,13.983,0,0,1-6.16-1.653ZM4.222,20.708a12.2,12.2,0,0,1-1.4-5.221h9.732l-.988.988a.464.464,0,0,0-.071.033ZM.947,15.487h.939a13.141,13.141,0,0,0,1.523,5.691l-.809.467A13.983,13.983,0,0,1,.947,15.487ZM2.6,8.39l.806.465a13.051,13.051,0,0,0-1.519,5.693H.947A13.982,13.982,0,0,1,2.6,8.39Zm16.482-1.35H18.3a.469.469,0,0,0-.469.469V8.917a.469.469,0,0,0,.047.2l-1.392,2.411a.48.48,0,0,0-.024.048l-.977.977V2.825a12.116,12.116,0,0,1,4.05.854.469.469,0,1,0,.348-.872,13.054,13.054,0,0,0-4.4-.922V.947A13.982,13.982,0,0,1,21.645,2.6ZM14.548,1.886A13.052,13.052,0,0,0,8.855,3.405L8.39,2.6A13.983,13.983,0,0,1,14.548.947Zm0,.939v10.44L9.329,4.226A12.117,12.117,0,0,1,14.548,2.826Zm-.813,10.91L4.7,8.517A12.3,12.3,0,0,1,8.517,4.7Zm-.469.813H2.826a12.116,12.116,0,0,1,1.4-5.219Zm-4.9,5.129.332.332a.469.469,0,0,0,.664,0L20.123,9.249a.469.469,0,0,0-.332-.8H18.772V7.978h3.285v3.285h-.469V10.244a.469.469,0,0,0-.8-.332L10.026,20.673a.469.469,0,0,0,0,.664l.332.332-.664.664L7.7,20.341ZM22.526,12.2A.469.469,0,0,0,23,11.732v-.779l2.817-1.626a12.213,12.213,0,0,1,1.4,5.221H17.478l.968-.968,2.468-1.425a.466.466,0,0,0,.2.047ZM11.022,21l.026-.026-.019.033Zm4.465,7.144A13.052,13.052,0,0,0,21.18,26.63l.465.806a13.982,13.982,0,0,1-6.158,1.652Zm0-.939V16.769l5.219,9.04A12.116,12.116,0,0,1,15.487,27.209ZM16.3,16.3l9.039,5.219a12.3,12.3,0,0,1-3.82,3.82Zm.469-.813h10.44a12.116,12.116,0,0,1-1.4,5.219Zm11.38-.939a13.155,13.155,0,0,0-1.523-5.691l.81-.468a13.982,13.982,0,0,1,1.652,6.158Zm-1.184-6.97L23,9.87V7.509a.469.469,0,0,0-.469-.469H20.166l1.355-2.347a12.211,12.211,0,0,1,3.163,2.879A.469.469,0,0,0,25.427,7,13.146,13.146,0,0,0,21.99,3.879l.467-.809A14.189,14.189,0,0,1,26.965,7.578ZM7.578,3.07l.465.806A13.311,13.311,0,0,0,3.876,8.043L3.07,7.578A14.189,14.189,0,0,1,7.578,3.07ZM3.07,22.457l1.206-.7h0l2.3-1.328a.467.467,0,0,0,.129.241l2.655,2.655a.467.467,0,0,0,.248.13L8.516,25.344A12.211,12.211,0,0,1,5.539,22.7a.469.469,0,1,0-.729.592,13.145,13.145,0,0,0,3.235,2.863l-.468.808A14.187,14.187,0,0,1,3.07,22.457Zm19.387,4.508-.465-.806a13.31,13.31,0,0,0,4.167-4.167l.806.465A14.19,14.19,0,0,1,22.457,26.965Z" fill="none"/>
    </g>
  </g>
</svg>
