<svg xmlns="http://www.w3.org/2000/svg" width="29.013" height="28.16" viewBox="0 0 29.013 28.16">
  <g id="holdem" transform="translate(-16.372 -14.001)">
    <g id="holdem-2" data-name="holdem" transform="translate(16.372 14.001)">
      <g id="ui-gambling-website-lined-icnos-casinoshunter" transform="translate(0 0)">
        <g id="_4" data-name="4">
          <g id="casino-chips">
            <g id="chip" transform="translate(11.947 6.827)">
              <path id="Path_524" data-name="Path 524" d="M8.533,0A8.533,8.533,0,1,1,0,8.533,8.533,8.533,0,0,1,8.533,0Z" fill="#ff6469"/>
              <path id="Path_525" data-name="Path 525" d="M8.533,0A8.533,8.533,0,1,1,0,8.533,8.533,8.533,0,0,1,8.533,0ZM5.412,12.1l-.024.028h0L3.4,14.117A7.556,7.556,0,0,0,8.059,16.1V13.251A4.721,4.721,0,0,1,5.412,12.1Zm3.6,1.149V16.1a7.559,7.559,0,0,0,4.8-2.119.4.4,0,0,1-.083-.065l-1.938-1.938A4.724,4.724,0,0,1,9.008,13.251ZM3.816,9.006H.963a7.552,7.552,0,0,0,1.78,4.426l1.974-1.974.053-.043A4.717,4.717,0,0,1,3.816,9.006Zm8.593,2.259,1.986,1.985.041.048A7.55,7.55,0,0,0,16.1,9.007H13.251A4.715,4.715,0,0,1,12.409,11.265ZM8.533,4.741a3.793,3.793,0,1,0,3.793,3.793A3.793,3.793,0,0,0,8.533,4.741ZM.963,8.059H3.816a4.717,4.717,0,0,1,.954-2.41l-.053-.043L2.743,3.634A7.552,7.552,0,0,0,.963,8.059ZM14.238,3.534,12.219,5.552a4.718,4.718,0,0,1,1.032,2.509H16.1A7.553,7.553,0,0,0,14.238,3.534ZM3.4,2.949,5.387,4.937l.026.028A4.713,4.713,0,0,1,8.061,3.816a.138.138,0,0,1,0-.023V.963A7.556,7.556,0,0,0,3.4,2.949ZM9.007.963V3.816a4.719,4.719,0,0,1,2.547,1.062L13.57,2.861A7.554,7.554,0,0,0,9.007.963Z" fill="#ad393d"/>
            </g>
            <g id="chip-copy-6" transform="translate(4.267)">
              <path id="chip-2" data-name="chip" d="M8.533,0A8.533,8.533,0,1,1,0,8.533,8.533,8.533,0,0,1,8.533,0Z" fill="#ffcd64"/>
              <path id="chip-3" data-name="chip" d="M8.533,0A8.533,8.533,0,1,1,0,8.533,8.533,8.533,0,0,1,8.533,0ZM5.412,12.1l-.024.028h0L3.4,14.117A7.556,7.556,0,0,0,8.059,16.1V13.251A4.721,4.721,0,0,1,5.412,12.1Zm3.6,1.149V16.1a7.559,7.559,0,0,0,4.8-2.119.4.4,0,0,1-.083-.065l-1.938-1.938A4.724,4.724,0,0,1,9.008,13.251ZM3.816,9.006H.963a7.552,7.552,0,0,0,1.78,4.426l1.974-1.974.053-.043A4.717,4.717,0,0,1,3.816,9.006Zm8.593,2.259,1.986,1.985.041.048A7.55,7.55,0,0,0,16.1,9.007H13.251A4.715,4.715,0,0,1,12.409,11.265ZM8.533,4.741a3.793,3.793,0,1,0,3.793,3.793A3.793,3.793,0,0,0,8.533,4.741ZM.963,8.059H3.816a4.717,4.717,0,0,1,.954-2.41l-.053-.043L2.743,3.634A7.552,7.552,0,0,0,.963,8.059ZM14.238,3.534,12.219,5.552a4.718,4.718,0,0,1,1.032,2.509H16.1A7.553,7.553,0,0,0,14.238,3.534ZM3.4,2.949,5.387,4.937l.026.028A4.713,4.713,0,0,1,8.061,3.816a.138.138,0,0,1,0-.023V.963A7.556,7.556,0,0,0,3.4,2.949ZM9.007.963V3.816a4.719,4.719,0,0,1,2.547,1.062L13.57,2.861A7.554,7.554,0,0,0,9.007.963Z" fill="#c29840"/>
            </g>
            <g id="chip-copy-7" transform="translate(0 11.093)">
              <path id="chip-4" data-name="chip" d="M8.533,0A8.533,8.533,0,1,1,0,8.533,8.533,8.533,0,0,1,8.533,0Z" fill="#7dd2f0"/>
              <path id="chip-5" data-name="chip" d="M8.533,0A8.533,8.533,0,1,1,0,8.533,8.533,8.533,0,0,1,8.533,0ZM5.412,12.1l-.024.028h0L3.4,14.117A7.556,7.556,0,0,0,8.059,16.1V13.251A4.721,4.721,0,0,1,5.412,12.1Zm3.6,1.149V16.1a7.559,7.559,0,0,0,4.8-2.119.4.4,0,0,1-.083-.065l-1.938-1.938A4.724,4.724,0,0,1,9.008,13.251ZM3.816,9.006H.963a7.552,7.552,0,0,0,1.78,4.426l1.974-1.974.053-.043A4.717,4.717,0,0,1,3.816,9.006Zm8.593,2.259,1.986,1.985.041.048A7.55,7.55,0,0,0,16.1,9.007H13.251A4.715,4.715,0,0,1,12.409,11.265ZM8.533,4.741a3.793,3.793,0,1,0,3.793,3.793A3.793,3.793,0,0,0,8.533,4.741ZM.963,8.059H3.816a4.717,4.717,0,0,1,.954-2.41l-.053-.043L2.743,3.634A7.552,7.552,0,0,0,.963,8.059ZM14.238,3.534,12.219,5.552a4.718,4.718,0,0,1,1.032,2.509H16.1A7.553,7.553,0,0,0,14.238,3.534ZM3.4,2.949,5.387,4.937l.026.028A4.713,4.713,0,0,1,8.061,3.816a.138.138,0,0,1,0-.023V.963A7.556,7.556,0,0,0,3.4,2.949ZM9.007.963V3.816a4.719,4.719,0,0,1,2.547,1.062L13.57,2.861A7.554,7.554,0,0,0,9.007.963Z" fill="#449ab8"/>
            </g>
          </g>
        </g>
      </g>
    </g>
  </g>
</svg>
