<svg xmlns="http://www.w3.org/2000/svg" width="24.825" height="31.877" viewBox="0 0 24.825 31.877">
  <g id="jackpots" transform="translate(-56.517 -0.706)">
    <rect id="Rectangle_461" data-name="Rectangle 461" width="7.151" height="4.591" transform="translate(65.309 25.665)" fill="#c7cfe2"/>
    <path id="Path_425" data-name="Path 425" d="M78.485,42.655a12.412,12.412,0,1,1-4.141,0" transform="translate(-7.483 -39.897)" fill="#d7deed"/>
    <path id="Path_426" data-name="Path 426" d="M206.81,14.512l-3.053-3.053a.319.319,0,0,1,.225-.544h6.107a.319.319,0,0,1,.225.544l-3.053,3.053A.319.319,0,0,1,206.81,14.512Z" transform="translate(-138.117 -10.209)" fill="#ff6464"/>
    <path id="Path_427" data-name="Path 427" d="M151.515,466.586H136v-2.392a.194.194,0,0,1,.194-.194h15.128a.194.194,0,0,1,.194.194Z" transform="translate(-74.828 -434.003)" fill="#d7deed"/>
    <path id="Path_428" data-name="Path 428" d="M125.375,101.651l-9.028-5.213a10.449,10.449,0,0,1,3.815-3.815Z" transform="translate(-56.446 -86.635)" fill="#ffe669"/>
    <path id="Path_429" data-name="Path 429" d="M180.575,71V81.426L175.362,72.4A10.327,10.327,0,0,1,180.575,71Z" transform="translate(-111.646 -66.41)" fill="#ffcd64"/>
    <path id="Path_430" data-name="Path 430" d="M261.213,72.4,256,81.426V71A10.327,10.327,0,0,1,261.213,72.4Z" transform="translate(-187.07 -66.41)" fill="#ffaa64"/>
    <path id="Path_431" data-name="Path 431" d="M265.028,96.438,256,101.651l5.213-9.028A10.448,10.448,0,0,1,265.028,96.438Z" transform="translate(-187.07 -86.635)" fill="#ff8c64"/>
    <path id="Path_432" data-name="Path 432" d="M266.426,156.851H256l9.028-5.213A10.327,10.327,0,0,1,266.426,156.851Z" transform="translate(-187.07 -141.835)" fill="#ff6469"/>
    <path id="Path_433" data-name="Path 433" d="M266.426,232.276a10.327,10.327,0,0,1-1.4,5.213L256,232.276Z" transform="translate(-187.07 -217.26)" fill="#e18caf"/>
    <path id="Path_434" data-name="Path 434" d="M265.028,237.489a10.448,10.448,0,0,1-3.815,3.815L256,232.276Z" transform="translate(-187.07 -217.26)" fill="#c3b4fa"/>
    <path id="Path_435" data-name="Path 435" d="M261.213,241.3A10.327,10.327,0,0,1,256,242.7V232.276Z" transform="translate(-187.07 -217.26)" fill="#7dd2f0"/>
    <path id="Path_436" data-name="Path 436" d="M180.575,232.276V242.7a10.327,10.327,0,0,1-5.213-1.4Z" transform="translate(-111.646 -217.26)" fill="#7de6c3"/>
    <path id="Path_437" data-name="Path 437" d="M125.374,232.276l-5.213,9.028a10.449,10.449,0,0,1-3.815-3.815Z" transform="translate(-56.445 -217.26)" fill="#96e393"/>
    <path id="Path_438" data-name="Path 438" d="M105.15,232.276l-9.028,5.213a10.327,10.327,0,0,1-1.4-5.213Z" transform="translate(-36.221 -217.26)" fill="#afe164"/>
    <path id="Path_439" data-name="Path 439" d="M105.15,156.851H94.724a10.327,10.327,0,0,1,1.4-5.213Z" transform="translate(-36.221 -141.835)" fill="#d7e664"/>
    <g id="Group_287" data-name="Group 287" transform="translate(59.966 6.053)" opacity="0.5">
      <circle id="Ellipse_28" data-name="Ellipse 28" cx="0.604" cy="0.604" r="0.604" transform="translate(16.719 10.599)" fill="#fff"/>
      <circle id="Ellipse_29" data-name="Ellipse 29" cx="0.604" cy="0.604" r="0.604" transform="translate(0 6.12)" fill="#fff"/>
      <circle id="Ellipse_30" data-name="Ellipse 30" cx="0.604" cy="0.604" r="0.604" transform="translate(10.6)" fill="#fff"/>
      <circle id="Ellipse_31" data-name="Ellipse 31" cx="0.604" cy="0.604" r="0.604" transform="translate(6.12 16.719)" fill="#fff"/>
      <circle id="Ellipse_32" data-name="Ellipse 32" cx="0.604" cy="0.604" r="0.604" transform="translate(14.479 14.479)" fill="#fff"/>
      <circle id="Ellipse_33" data-name="Ellipse 33" cx="0.604" cy="0.604" r="0.604" transform="translate(2.24 2.24)" fill="#fff"/>
      <circle id="Ellipse_34" data-name="Ellipse 34" cx="0.604" cy="0.604" r="0.604" transform="translate(14.479 2.24)" fill="#fff"/>
      <circle id="Ellipse_35" data-name="Ellipse 35" cx="0.604" cy="0.604" r="0.604" transform="translate(2.24 14.479)" fill="#fff"/>
      <circle id="Ellipse_36" data-name="Ellipse 36" cx="0.604" cy="0.604" r="0.604" transform="translate(0 10.599)" fill="#fff"/>
      <circle id="Ellipse_37" data-name="Ellipse 37" cx="0.604" cy="0.604" r="0.604" transform="translate(16.719 6.12)" fill="#fff"/>
      <circle id="Ellipse_38" data-name="Ellipse 38" cx="0.604" cy="0.604" r="0.604" transform="translate(6.12)" fill="#fff"/>
      <circle id="Ellipse_39" data-name="Ellipse 39" cx="0.604" cy="0.604" r="0.604" transform="translate(10.6 16.719)" fill="#fff"/>
    </g>
    <circle id="Ellipse_40" data-name="Ellipse 40" cx="3.638" cy="3.638" r="3.638" transform="translate(65.291 11.093)" fill="#fff"/>
    <path id="Path_440" data-name="Path 440" d="M229.312,203.187l.469.95,1.048.152a.194.194,0,0,1,.107.33l-.758.739.179,1.044a.194.194,0,0,1-.281.2l-.937-.493-.937.493a.194.194,0,0,1-.281-.2l.179-1.044-.758-.739a.194.194,0,0,1,.107-.33l1.048-.152.469-.95A.194.194,0,0,1,229.312,203.187Z" transform="translate(-160.208 -189.95)" fill="#ffd782"/>
  </g>
</svg>
