<svg xmlns="http://www.w3.org/2000/svg" width="19.442" height="26.299" viewBox="0 0 19.442 26.299">
  <g id="Group_211" data-name="Group 211" transform="translate(-17 -10.999)">
    <g id="lottery" transform="translate(13.027 11)">
      <g id="o" transform="translate(-7.327 -4.001)">
        <path id="Path_383" data-name="Path 383" d="M13.869,5A1.565,1.565,0,0,0,12.3,6.569V11l9.251.883L30.8,11V6.569A1.565,1.565,0,0,0,29.234,5Z" transform="translate(-0.53 -0.53)" fill="#96e393" fill-rule="evenodd"/>
        <path id="Path_384" data-name="Path 384" d="M30.8,17.79H12.3V35.574a1.565,1.565,0,0,0,1.569,1.569H29.234A1.565,1.565,0,0,0,30.8,35.574Z" transform="translate(-0.53 -7.314)" fill="#96e393" fill-rule="evenodd"/>
        <path id="Path_387" data-name="Path 387" d="M18.15,23.517a1.045,1.045,0,1,1-1.043-1.047A1.047,1.047,0,0,1,18.15,23.517Z" transform="translate(-2.525 -9.796)" fill="#3aff00" fill-rule="evenodd"/>
        <path id="Path_388" data-name="Path 388" d="M27.284,23.517a1.047,1.047,0,1,1-1.047-1.047A1.048,1.048,0,0,1,27.284,23.517Z" transform="translate(-7.367 -9.796)" fill="#3aff00" fill-rule="evenodd"/>
        <path id="Path_389" data-name="Path 389" d="M36.44,23.517A1.045,1.045,0,1,1,35.4,22.47,1.047,1.047,0,0,1,36.44,23.517Z" transform="translate(-12.225 -9.796)" fill="#e23737" fill-rule="evenodd"/>
        <path id="Path_390" data-name="Path 390" d="M45.574,23.517a1.047,1.047,0,1,1-1.047-1.047A1.048,1.048,0,0,1,45.574,23.517Z" transform="translate(-17.068 -9.796)" fill="#e23737" fill-rule="evenodd"/>
        <path id="Path_391" data-name="Path 391" d="M18.15,32.647A1.045,1.045,0,1,1,17.107,31.6,1.047,1.047,0,0,1,18.15,32.647Z" transform="translate(-2.525 -14.639)" fill="#3aff00" fill-rule="evenodd"/>
        <path id="Path_392" data-name="Path 392" d="M27.284,32.647A1.047,1.047,0,1,1,26.237,31.6,1.048,1.048,0,0,1,27.284,32.647Z" transform="translate(-7.367 -14.639)" fill="#3aff00" fill-rule="evenodd"/>
        <path id="Path_393" data-name="Path 393" d="M36.44,32.647A1.045,1.045,0,1,1,35.4,31.6,1.047,1.047,0,0,1,36.44,32.647Z" transform="translate(-12.225 -14.639)" fill="#3aff00" fill-rule="evenodd"/>
        <path id="Path_394" data-name="Path 394" d="M45.574,32.647A1.047,1.047,0,1,1,44.527,31.6,1.048,1.048,0,0,1,45.574,32.647Z" transform="translate(-17.068 -14.639)" fill="#e23737" fill-rule="evenodd"/>
        <path id="Path_395" data-name="Path 395" d="M18.15,41.777a1.045,1.045,0,1,1-1.043-1.047A1.047,1.047,0,0,1,18.15,41.777Z" transform="translate(-2.525 -19.481)" fill="#e23737" fill-rule="evenodd"/>
        <path id="Path_396" data-name="Path 396" d="M27.284,41.777a1.047,1.047,0,1,1-1.047-1.047A1.048,1.048,0,0,1,27.284,41.777Z" transform="translate(-7.367 -19.481)" fill="#e23737" fill-rule="evenodd"/>
        <path id="Path_397" data-name="Path 397" d="M36.44,41.777A1.045,1.045,0,1,1,35.4,40.73,1.047,1.047,0,0,1,36.44,41.777Z" transform="translate(-12.225 -19.481)" fill="#3aff00" fill-rule="evenodd"/>
        <path id="Path_398" data-name="Path 398" d="M45.574,41.777a1.047,1.047,0,1,1-1.047-1.047A1.048,1.048,0,0,1,45.574,41.777Z" transform="translate(-17.068 -19.481)" fill="#3aff00" fill-rule="evenodd"/>
        <path id="Path_399" data-name="Path 399" d="M18.15,50.913a1.045,1.045,0,1,1-1.043-1.043A1.047,1.047,0,0,1,18.15,50.913Z" transform="translate(-2.525 -24.329)" fill="#e23737" fill-rule="evenodd"/>
        <path id="Path_400" data-name="Path 400" d="M27.284,50.913a1.047,1.047,0,1,1-1.047-1.043A1.048,1.048,0,0,1,27.284,50.913Z" transform="translate(-7.367 -24.329)" fill="#e23737" fill-rule="evenodd"/>
        <path id="Path_401" data-name="Path 401" d="M36.44,50.913A1.045,1.045,0,1,1,35.4,49.87,1.047,1.047,0,0,1,36.44,50.913Z" transform="translate(-12.225 -24.329)" fill="#3aff00" fill-rule="evenodd"/>
        <path id="Path_402" data-name="Path 402" d="M45.574,50.913a1.047,1.047,0,1,1-1.047-1.043A1.048,1.048,0,0,1,45.574,50.913Z" transform="translate(-17.068 -24.329)" fill="#3aff00" fill-rule="evenodd"/>
        <path id="Path_403" data-name="Path 403" d="M28.7,4H13.338A2.042,2.042,0,0,0,11.3,6.038V28.26A2.042,2.042,0,0,0,13.338,30.3H28.7a2.042,2.042,0,0,0,2.038-2.038V6.038A2.042,2.042,0,0,0,28.7,4Zm-15.366.939H28.7a1.1,1.1,0,0,1,1.1,1.1v3.968H12.239V6.038A1.1,1.1,0,0,1,13.338,4.939ZM28.7,29.359H13.338a1.1,1.1,0,0,1-1.1-1.1V10.946H29.8V28.26A1.1,1.1,0,0,1,28.7,29.359Z" transform="translate(0)" fill="#b2e9e5"/>
        <path id="Path_404" data-name="Path 404" d="M18.05,11.2H19.2a.47.47,0,0,0,0-.939h-.686V8.7a.47.47,0,0,0-.939,0v2.029a.471.471,0,0,0,.47.47Z" transform="translate(-3.331 -2.244)"/>
        <path id="Path_405" data-name="Path 405" d="M24.154,11.2A1.247,1.247,0,0,0,25.4,9.959V9.484a1.244,1.244,0,1,0-2.489,0v.474A1.247,1.247,0,0,0,24.154,11.2ZM23.849,9.48a.305.305,0,0,1,.611,0v.474a.305.305,0,1,1-.611,0Z" transform="translate(-6.158 -2.249)"/>
        <path id="Path_406" data-name="Path 406" d="M29.544,9.179h.268v1.559a.47.47,0,1,0,.939,0V9.179h.268a.47.47,0,0,0,0-.939H29.54a.47.47,0,1,0,0,.939Z" transform="translate(-9.425 -2.249)"/>
        <path id="Path_407" data-name="Path 407" d="M42.364,11.2a1.247,1.247,0,0,0,1.244-1.244V9.484a1.244,1.244,0,0,0-2.489,0v.474A1.247,1.247,0,0,0,42.364,11.2ZM42.059,9.48a.305.305,0,0,1,.611,0v.474a.305.305,0,1,1-.611,0Z" transform="translate(-15.816 -2.249)"/>
        <path id="Path_408" data-name="Path 408" d="M35.564,9.179h.268v1.559a.47.47,0,1,0,.939,0V9.179h.268a.47.47,0,1,0,0-.939H35.56a.47.47,0,1,0,0,.939Z" transform="translate(-12.618 -2.249)"/>
        <path id="Path_409" data-name="Path 409" d="M16.567,21.47a1.515,1.515,0,1,0,1.517,1.517A1.519,1.519,0,0,0,16.567,21.47Zm0,2.09a.575.575,0,1,1,.578-.573A.579.579,0,0,1,16.567,23.56Z" transform="translate(-1.989 -9.266)" fill="#376d69"/>
        <path id="Path_410" data-name="Path 410" d="M25.722,21.47a1.515,1.515,0,1,0,1.517,1.517A1.515,1.515,0,0,0,25.722,21.47Zm0,2.09a.575.575,0,1,1,.578-.573A.581.581,0,0,1,25.722,23.56Z" transform="translate(-6.847 -9.266)" fill="#376d69"/>
        <path id="Path_411" data-name="Path 411" d="M34.857,21.47a1.515,1.515,0,1,0,1.512,1.517A1.519,1.519,0,0,0,34.857,21.47Zm0,2.09a.575.575,0,1,1,0-1.151.575.575,0,0,1,0,1.151Z" transform="translate(-11.69 -9.266)" fill="#376d69"/>
        <path id="Path_412" data-name="Path 412" d="M44.007,21.47a1.515,1.515,0,1,0,1.517,1.517A1.519,1.519,0,0,0,44.007,21.47Zm0,2.09a.575.575,0,1,1,.578-.573A.579.579,0,0,1,44.007,23.56Z" transform="translate(-16.543 -9.266)" fill="#376d69"/>
        <path id="Path_413" data-name="Path 413" d="M16.567,30.6a1.515,1.515,0,1,0,1.517,1.517A1.519,1.519,0,0,0,16.567,30.6Zm0,2.09a.575.575,0,1,1,.578-.573A.579.579,0,0,1,16.567,32.69Z" transform="translate(-1.989 -14.108)" fill="#376d69"/>
        <path id="Path_414" data-name="Path 414" d="M25.722,30.6a1.515,1.515,0,1,0,1.517,1.517A1.515,1.515,0,0,0,25.722,30.6Zm0,2.09a.575.575,0,1,1,.578-.573A.581.581,0,0,1,25.722,32.69Z" transform="translate(-6.847 -14.108)" fill="#376d69"/>
        <path id="Path_415" data-name="Path 415" d="M34.857,30.6a1.515,1.515,0,1,0,1.512,1.517A1.519,1.519,0,0,0,34.857,30.6Zm0,2.09a.575.575,0,1,1,0-1.151.575.575,0,0,1,0,1.151Z" transform="translate(-11.69 -14.108)" fill="#376d69"/>
        <path id="Path_416" data-name="Path 416" d="M44.007,30.6a1.515,1.515,0,1,0,1.517,1.517A1.519,1.519,0,0,0,44.007,30.6Zm0,2.09a.575.575,0,1,1,.578-.573A.579.579,0,0,1,44.007,32.69Z" transform="translate(-16.543 -14.108)" fill="#376d69"/>
        <path id="Path_417" data-name="Path 417" d="M16.567,39.74a1.512,1.512,0,1,0,1.517,1.512A1.518,1.518,0,0,0,16.567,39.74Zm0,2.09a.573.573,0,1,1,.578-.573A.586.586,0,0,1,16.567,41.83Z" transform="translate(-1.989 -18.956)" fill="#376d69"/>
        <path id="Path_418" data-name="Path 418" d="M25.722,39.74a1.512,1.512,0,1,0,1.517,1.512A1.514,1.514,0,0,0,25.722,39.74Zm0,2.09a.573.573,0,1,1,.578-.573A.581.581,0,0,1,25.722,41.83Z" transform="translate(-6.847 -18.956)" fill="#376d69"/>
        <path id="Path_419" data-name="Path 419" d="M34.857,39.74a1.512,1.512,0,1,0,1.512,1.512A1.518,1.518,0,0,0,34.857,39.74Zm0,2.09a.573.573,0,1,1,0-1.146.573.573,0,1,1,0,1.146Z" transform="translate(-11.69 -18.956)" fill="#376d69"/>
        <path id="Path_420" data-name="Path 420" d="M44.007,39.74a1.512,1.512,0,1,0,1.517,1.512A1.518,1.518,0,0,0,44.007,39.74Zm0,2.09a.573.573,0,1,1,.578-.573A.586.586,0,0,1,44.007,41.83Z" transform="translate(-16.543 -18.956)" fill="#376d69"/>
        <path id="Path_421" data-name="Path 421" d="M16.567,48.87a1.515,1.515,0,1,0,1.517,1.512A1.518,1.518,0,0,0,16.567,48.87Zm0,2.09a.586.586,0,0,1-.578-.578.578.578,0,0,1,1.155,0A.586.586,0,0,1,16.567,50.96Z" transform="translate(-1.989 -23.798)" fill="#376d69"/>
        <path id="Path_422" data-name="Path 422" d="M25.722,48.87a1.515,1.515,0,1,0,1.517,1.512A1.514,1.514,0,0,0,25.722,48.87Zm0,2.09a.575.575,0,1,1,.578-.578A.582.582,0,0,1,25.722,50.96Z" transform="translate(-6.847 -23.798)" fill="#376d69"/>
        <path id="Path_423" data-name="Path 423" d="M34.857,48.87a1.515,1.515,0,1,0,1.512,1.512A1.518,1.518,0,0,0,34.857,48.87Zm0,2.09a.586.586,0,0,1-.578-.578.575.575,0,0,1,1.151,0A.586.586,0,0,1,34.857,50.96Z" transform="translate(-11.69 -23.798)" fill="#376d69"/>
        <path id="Path_424" data-name="Path 424" d="M44.007,48.87a1.515,1.515,0,1,0,1.517,1.512A1.518,1.518,0,0,0,44.007,48.87Zm0,2.09a.586.586,0,0,1-.578-.578.578.578,0,0,1,1.155,0A.586.586,0,0,1,44.007,50.96Z" transform="translate(-16.543 -23.798)" fill="#376d69"/>
      </g>
    </g>
  </g>
</svg>
