<svg xmlns="http://www.w3.org/2000/svg" width="22.395" height="21.9" viewBox="0 0 22.395 21.9">
  <g id="Group_232" data-name="Group 232" transform="translate(-13 -13)">
    <g id="othergames" transform="translate(43 13)">
      <g id="Dribbble-Light-Preview" transform="translate(-30)">
        <g id="icons">
          <path id="menu_navigation_grid-_1529_" data-name="menu_navigation_grid-[#1529]" d="M53.4,43.3v3.3a3.385,3.385,0,0,1-3.465,3.3H46.465C44.551,49.9,43,49.423,43,47.6V44.3c0-1.823,1.551-4.3,3.465-4.3H49.93A3.385,3.385,0,0,1,53.4,43.3" transform="translate(-43 -40)" fill="#fff" fill-rule="evenodd"/>
          <path id="menu_navigation_grid-_1529_2" data-name="menu_navigation_grid-[#1529]" d="M53.4,46.6V43.3A3.385,3.385,0,0,0,49.93,40H46.465C44.551,40,43,40.477,43,42.3v3.3c0,1.823,1.551,4.3,3.465,4.3H49.93A3.385,3.385,0,0,0,53.4,46.6" transform="translate(-43 -28)" fill="#ff6469" fill-rule="evenodd"/>
          <path id="menu_navigation_grid-_1529_3" data-name="menu_navigation_grid-[#1529]" d="M43,43.3v3.3a3.385,3.385,0,0,0,3.465,3.3H49.93c1.914,0,3.465-.477,3.465-2.3V44.3c0-1.823-1.551-4.3-3.465-4.3H46.465A3.385,3.385,0,0,0,43,43.3" transform="translate(-31 -40)" fill="#ffcd64" fill-rule="evenodd"/>
          <path id="menu_navigation_grid-_1529_4" data-name="menu_navigation_grid-[#1529]" d="M43,46.6V43.3A3.385,3.385,0,0,1,46.465,40H49.93c1.914,0,3.465.477,3.465,2.3v3.3c0,1.823-1.551,4.3-3.465,4.3H46.465A3.385,3.385,0,0,1,43,46.6" transform="translate(-31 -28)" fill="#7dd2f0" fill-rule="evenodd"/>
        </g>
      </g>
    </g>
  </g>
</svg>
