<svg xmlns="http://www.w3.org/2000/svg" width="30.312" height="28" viewBox="0 0 30.312 28">
  <g id="poker" transform="translate(0 -2.29)">
    <path id="Path_522" data-name="Path 522" d="M36.847,5.43l-14.392-3.1a1.707,1.707,0,0,0-2,1.288L15.915,24.681a1.679,1.679,0,0,0,1.288,2l14.392,3.1a1.679,1.679,0,0,0,2-1.288L38.135,7.426A1.682,1.682,0,0,0,36.847,5.43ZM32.61,17.622a15.9,15.9,0,0,1-6.593,4.462l-.322.132-.238-.253A15.89,15.89,0,0,1,21.29,15.18a4.428,4.428,0,0,1,.609-3.374,3.868,3.868,0,0,1,2.49-1.8,3.67,3.67,0,0,1,.7-.07,3.728,3.728,0,0,1,2.918,1.541,4.158,4.158,0,0,1,1.906-.5,3.393,3.393,0,0,1,2,.653A3.866,3.866,0,0,1,33.446,14.3,4.427,4.427,0,0,1,32.61,17.622Z" transform="translate(-7.86 0)" fill="#7dd2f0"/>
    <path id="Path_523" data-name="Path 523" d="M7.437,27.742a2.671,2.671,0,0,1-.369-2.025l.859-3.983c-.089.007-.177.017-.269.017h0a3.413,3.413,0,0,1-1.787-.512A3.866,3.866,0,0,1,4.148,18.7a4.428,4.428,0,0,1,.584-3.377,15.236,15.236,0,0,1,5.57-4.594l1.077-4.994-6.514-.9A1.685,1.685,0,0,0,2.971,6.263L.016,27.611A1.682,1.682,0,0,0,1.45,29.5l14.584,2.018a1.712,1.712,0,0,0,.231.016,1.68,1.68,0,0,0,1.41-.783L9.13,28.913A2.669,2.669,0,0,1,7.437,27.742Z" transform="translate(0 -1.249)" fill="#ff6469"/>
  </g>
</svg>
