<svg xmlns="http://www.w3.org/2000/svg" width="25.414" height="22.078" viewBox="0 0 25.414 22.078">
  <g id="popular" transform="translate(-21.983 -12.922)">
    <path id="reshot-icon-star-L4WXUS27PB" d="M15.707,4a1.441,1.441,0,0,1,1.211.631l3.914,6,6.447,1.186a1.375,1.375,0,0,1,1.074.9A1.227,1.227,0,0,1,28,14.009l-5.113,4.7,1.264,5.812a1.247,1.247,0,0,1-.527,1.287,1.514,1.514,0,0,1-1.488.129l-6.428-2.956L9.279,25.941a1.514,1.514,0,0,1-1.488-.129,1.247,1.247,0,0,1-.527-1.287l1.264-5.812-5.113-4.7a1.227,1.227,0,0,1-.353-1.295,1.375,1.375,0,0,1,1.074-.9l6.447-1.186,3.914-6A1.441,1.441,0,0,1,15.707,4Z" transform="translate(18.983 8.922)" fill="#fff" fill-rule="evenodd"/>
  </g>
</svg>
