<svg xmlns="http://www.w3.org/2000/svg" width="29.035" height="19.996" viewBox="0 0 29.035 19.996">
  <g id="Group_210" data-name="Group 210" transform="translate(-15.982 -14.004)">
    <g id="Group_290" data-name="Group 290">
      <path id="Union_3" data-name="Union 3" d="M9861.035,18344h-8.562l8-2.117v-3.723l-8.258,1.588,9.82-6.363V18343A1,1,0,0,1,9861.035,18344Zm-18.331,0H9834a1,1,0,0,1-1-1v-8.9l8.5-3.77-7.847,6.73.585,2.684,4.451-1.039-2.167,2.463,3.748,1.422,4.685-4.434-2.251,5.84Zm7.586-9.074h0l10.854-10.916a1,1,0,0,1,.893.994v3.336Zm-17.29-4.592V18325a1,1,0,0,1,1-1h11.891l-12.89,6.328Zm14.831-.553v0l6.012-5.775h4.092Z" transform="translate(-9817.018 -18309.996)" fill="#95a9d5"/>
      <path id="Path_444" data-name="Path 444" d="M.171-16.342c0-2.081-1.927-2.628-3.68-3.011v-2.509a6.773,6.773,0,0,1,2.416.768l.79-1.816a7.51,7.51,0,0,0-3.206-.9V-25.42H-5.088v1.639c-2.5.266-3.711,1.609-3.711,3.174,0,2.111,1.958,2.657,3.711,3.056v2.465a6.665,6.665,0,0,1-3.064-1.048l-.869,1.8a7.844,7.844,0,0,0,3.933,1.181v1.609h1.579V-13.2C-1.03-13.478.171-14.807.171-16.342Zm-6.428-4.384c0-.487.332-.915,1.169-1.092v2.1C-5.783-19.929-6.257-20.209-6.257-20.726Zm2.748,5.58v-2.037c.679.221,1.137.5,1.137,1.019C-2.372-15.692-2.719-15.308-3.509-15.146Z" transform="translate(34.926 42.484)" fill="#afe164"/>
    </g>
  </g>
</svg>
