<svg xmlns="http://www.w3.org/2000/svg" width="30" height="30" viewBox="0 0 30 30">
  <g id="sicbo" transform="translate(-9 -9)">
    <g id="sicbo-2" data-name="sicbo" transform="translate(8 8)">
      <path id="Path_526" data-name="Path 526" d="M16,11H6a4.951,4.951,0,0,0-5,5V26a4.951,4.951,0,0,0,5,5H16a4.951,4.951,0,0,0,5-5V16A4.951,4.951,0,0,0,16,11ZM7,15a2,2,0,1,1-2,2A2.006,2.006,0,0,1,7,15ZM7,27a2,2,0,1,1,2-2A2.006,2.006,0,0,1,7,27Zm4-4a2,2,0,1,1,2-2A2.006,2.006,0,0,1,11,23Zm4,4a2,2,0,1,1,2-2A2.006,2.006,0,0,1,15,27Zm0-8a2,2,0,1,1,2-2A2.006,2.006,0,0,1,15,19Z" fill="#f05b60"/>
      <path id="Path_527" data-name="Path 527" d="M26,1H16a4.951,4.951,0,0,0-5,5V9h5a6.957,6.957,0,0,1,7,7v5h3a4.951,4.951,0,0,0,5-5V6A4.951,4.951,0,0,0,26,1ZM25,9a2,2,0,1,1,2-2A2.006,2.006,0,0,1,25,9Z" fill="#ad393d"/>
    </g>
  </g>
</svg>
