<svg xmlns="http://www.w3.org/2000/svg" xmlns:xlink="http://www.w3.org/1999/xlink" width="32.264" height="22.001" viewBox="0 0 32.264 22.001">
  <defs>
    <linearGradient id="linear-gradient" x1="0.012" y1="0.358" x2="1" y2="0.358" gradientUnits="objectBoundingBox">
      <stop offset="0" stop-color="#225d92"/>
      <stop offset="0.473" stop-color="#54afff"/>
      <stop offset="1" stop-color="#225d92"/>
    </linearGradient>
    <linearGradient id="linear-gradient-2" x1="0.012" y1="0.358" x2="1" y2="0.358" gradientUnits="objectBoundingBox">
      <stop offset="0" stop-color="red"/>
      <stop offset="0.184" stop-color="#877ab2"/>
      <stop offset="0.473" stop-color="#54afff"/>
      <stop offset="0.827" stop-color="#ab567d"/>
      <stop offset="1" stop-color="red"/>
    </linearGradient>
  </defs>
  <g id="Group_7" data-name="Group 7" transform="translate(-17.24 -13.001)">
    <path id="jackpot-svgrepo-com" d="M31.446,17.05l-.151.53-.568.169-.574.177.568.164.568.169.164.568.164.561.177-.568.171-.574L32.5,18.1c.29-.081.511-.169.48-.2a2.507,2.507,0,0,0-.467-.159,3.082,3.082,0,0,1-.492-.151,1.83,1.83,0,0,1-.208-.518,3.472,3.472,0,0,0-.177-.518c-.026-.027-.108.188-.19.486ZM2.3,14.5c-.189.65-.183.631-.271.663-.044,0-.3.089-.555.164L1,15.473l.53.164a1.932,1.932,0,0,1,.587.258,5.855,5.855,0,0,1,.189.562l.139.473.158-.518a3.36,3.36,0,0,1,.215-.568,3.744,3.744,0,0,1,.568-.21l.518-.164-.5-.145a3.439,3.439,0,0,1-.568-.2,3.019,3.019,0,0,1-.227-.58l-.165-.518L2.3,14.5Zm11.131-3.452a4.084,4.084,0,0,0-2.108,1.736l-.151.328h-1.8l-.953.751a13.836,13.836,0,0,0-4.089,4.348,5.162,5.162,0,0,0-.555,3.357l.069.41,2.789.027H9.418l.069-.36A9.851,9.851,0,0,1,11.1,17.992a2.5,2.5,0,0,0,.593-1.224,12.391,12.391,0,0,1,2.612-5.08c.36-.429.454-.574.391-.612a2.932,2.932,0,0,0-1.268-.032ZM31.737,8.311a3.973,3.973,0,0,1-1.4.675,7.9,7.9,0,0,1-2.53,0L27.345,8.9l-.58.606A20.465,20.465,0,0,0,25.111,11.4l-.36.467.555.177a8.3,8.3,0,0,0,1.779.385l.278.027-1,.757a22.919,22.919,0,0,0-4.013,3.6,7.745,7.745,0,0,0-.543,2.656,15.118,15.118,0,0,0,.076,2.461,21.54,21.54,0,0,0,3.7.081c3.464,0,3.666,0,3.622-.113a11.061,11.061,0,0,1-.511-1.78,11.517,11.517,0,0,1,.095-3.363A13.086,13.086,0,0,1,32.6,10.407l.662-.656-.7-.783c-.385-.423-.7-.776-.707-.776a.89.89,0,0,0-.12.121ZM1.726,10.557v2.618H2.95c1.161,0,1.231,0,1.268-.118A4.652,4.652,0,0,1,5.525,11.9a2.243,2.243,0,0,1,.707-.215l.353-.038V7.984l-.524.032a3.1,3.1,0,0,0-.934.2,2.509,2.509,0,0,1-.549.164A.348.348,0,0,1,4.25,8.06c0-.113-.057-.121-1.262-.121H1.726v2.619Zm5.553-1.83v3.691h3.439l.126-.22a6.1,6.1,0,0,1,1.432-1.357c1.085-.706,1.9-.726,3.875-.094a10.828,10.828,0,0,0,2.638.593l.618.038-1.067.8a42.886,42.886,0,0,0-5.086,4.272c-2.284,2.379-3.3,4.587-3.18,6.91A10.221,10.221,0,0,0,10.2,24.5l.082.379,5.887.027c4.708,0,5.881,0,5.856-.062a11.211,11.211,0,0,1-.927-4.575c-.006-4.076,1.881-7.995,5.622-11.7l.991-.978L26.739,6.51c-.536-.6-.99-1.085-1.01-1.085a1.591,1.591,0,0,0-.3.226,5.276,5.276,0,0,1-1.843.858,5.723,5.723,0,0,1-1.767.14c-1.584,0-2.07-.094-4.827-.9-2.581-.757-3.71-.814-5.08-.271a2.942,2.942,0,0,1-.625.2.511.511,0,0,1-.416-.461V5.047h-3.6V8.739ZM13.91,6.336c.151.183-.013.3-.492.379a5.072,5.072,0,0,0-.827.207c-.416.159-.58.121-.58-.118,0-.164.132-.247.644-.416C13.2,6.21,13.784,6.185,13.91,6.336Zm.719,17.22v.188l-1.647.027c-1.767.027-1.855,0-1.761-.3.038-.126.069-.126,1.722-.113l1.685.027v.188Zm7.414-20.18a2.057,2.057,0,0,1-.215.562,1.826,1.826,0,0,1-.48.183c-.631.169-.637.188-.038.353l.549.151.171.568.177.562.145-.5a3.152,3.152,0,0,1,.2-.568,2.543,2.543,0,0,1,.58-.226l.518-.164-.473-.14c-.259-.075-.511-.159-.562-.183a1.458,1.458,0,0,1-.233-.549c-.082-.271-.158-.5-.171-.518a2.752,2.752,0,0,0-.17.467Z" transform="translate(16.24 10.093)" fill="url(#linear-gradient)"/>
    <path id="videoslots" d="M31.446,17.05l-.151.53-.568.169-.574.177.568.164.568.169.164.568.164.561.177-.568.171-.574L32.5,18.1c.29-.081.511-.169.48-.2a2.507,2.507,0,0,0-.467-.159,3.082,3.082,0,0,1-.492-.151,1.83,1.83,0,0,1-.208-.518,3.472,3.472,0,0,0-.177-.518c-.026-.027-.108.188-.19.486ZM2.3,14.5c-.189.65-.183.631-.271.663-.044,0-.3.089-.555.164L1,15.473l.53.164a1.932,1.932,0,0,1,.587.258,5.855,5.855,0,0,1,.189.562l.139.473.158-.518a3.36,3.36,0,0,1,.215-.568,3.744,3.744,0,0,1,.568-.21l.518-.164-.5-.145a3.439,3.439,0,0,1-.568-.2,3.019,3.019,0,0,1-.227-.58l-.165-.518L2.3,14.5Zm11.131-3.452a4.084,4.084,0,0,0-2.108,1.736l-.151.328h-1.8l-.953.751a13.836,13.836,0,0,0-4.089,4.348,5.162,5.162,0,0,0-.555,3.357l.069.41,2.789.027H9.418l.069-.36A9.851,9.851,0,0,1,11.1,17.992a2.5,2.5,0,0,0,.593-1.224,12.391,12.391,0,0,1,2.612-5.08c.36-.429.454-.574.391-.612a2.932,2.932,0,0,0-1.268-.032ZM31.737,8.311a3.973,3.973,0,0,1-1.4.675,7.9,7.9,0,0,1-2.53,0L27.345,8.9l-.58.606A20.465,20.465,0,0,0,25.111,11.4l-.36.467.555.177a8.3,8.3,0,0,0,1.779.385l.278.027-1,.757a22.919,22.919,0,0,0-4.013,3.6,7.745,7.745,0,0,0-.543,2.656,15.118,15.118,0,0,0,.076,2.461,21.54,21.54,0,0,0,3.7.081c3.464,0,3.666,0,3.622-.113a11.061,11.061,0,0,1-.511-1.78,11.517,11.517,0,0,1,.095-3.363A13.086,13.086,0,0,1,32.6,10.407l.662-.656-.7-.783c-.385-.423-.7-.776-.707-.776a.89.89,0,0,0-.12.121ZM1.726,10.557v2.618H2.95c1.161,0,1.231,0,1.268-.118A4.652,4.652,0,0,1,5.525,11.9a2.243,2.243,0,0,1,.707-.215l.353-.038V7.984l-.524.032a3.1,3.1,0,0,0-.934.2,2.509,2.509,0,0,1-.549.164A.348.348,0,0,1,4.25,8.06c0-.113-.057-.121-1.262-.121H1.726v2.619Zm5.553-1.83v3.691h3.439l.126-.22a6.1,6.1,0,0,1,1.432-1.357c1.085-.706,1.9-.726,3.875-.094a10.828,10.828,0,0,0,2.638.593l.618.038-1.067.8a42.886,42.886,0,0,0-5.086,4.272c-2.284,2.379-3.3,4.587-3.18,6.91A10.221,10.221,0,0,0,10.2,24.5l.082.379,5.887.027c4.708,0,5.881,0,5.856-.062a11.211,11.211,0,0,1-.927-4.575c-.006-4.076,1.881-7.995,5.622-11.7l.991-.978L26.739,6.51c-.536-.6-.99-1.085-1.01-1.085a1.591,1.591,0,0,0-.3.226,5.276,5.276,0,0,1-1.843.858,5.723,5.723,0,0,1-1.767.14c-1.584,0-2.07-.094-4.827-.9-2.581-.757-3.71-.814-5.08-.271a2.942,2.942,0,0,1-.625.2.511.511,0,0,1-.416-.461V5.047h-3.6V8.739ZM13.91,6.336c.151.183-.013.3-.492.379a5.072,5.072,0,0,0-.827.207c-.416.159-.58.121-.58-.118,0-.164.132-.247.644-.416C13.2,6.21,13.784,6.185,13.91,6.336Zm.719,17.22v.188l-1.647.027c-1.767.027-1.855,0-1.761-.3.038-.126.069-.126,1.722-.113l1.685.027v.188Zm7.414-20.18a2.057,2.057,0,0,1-.215.562,1.826,1.826,0,0,1-.48.183c-.631.169-.637.188-.038.353l.549.151.171.568.177.562.145-.5a3.152,3.152,0,0,1,.2-.568,2.543,2.543,0,0,1,.58-.226l.518-.164-.473-.14c-.259-.075-.511-.159-.562-.183a1.458,1.458,0,0,1-.233-.549c-.082-.271-.158-.5-.171-.518a2.752,2.752,0,0,0-.17.467Z" transform="translate(16.24 10.094)" fill="url(#linear-gradient-2)"/>
  </g>
</svg>
