<svg xmlns="http://www.w3.org/2000/svg" width="28.916" height="28" viewBox="0 0 28.916 28">
  <g id="videopoker" transform="translate(-2 -2)">
    <g id="Group_231" data-name="Group 231">
      <path id="Path_210" data-name="Path 210" d="M17,2H7A4.951,4.951,0,0,0,2,7V25a4.951,4.951,0,0,0,5,5H17a4.951,4.951,0,0,0,5-5V7A4.951,4.951,0,0,0,17,2ZM8,9a.945.945,0,0,1-1,1A.945.945,0,0,1,6,9V7A.945.945,0,0,1,7,6,.945.945,0,0,1,8,7Zm7.3,8.3a2.36,2.36,0,0,1-1.6.7h0a1.7,1.7,0,0,1-.7-.1V19a1,1,0,0,1,0,2H11a1,1,0,0,1,0-2V17.9a1.7,1.7,0,0,1-.7.1h0a1.99,1.99,0,0,1-1.6-.7,2.354,2.354,0,0,1,0-3.3l2.6-2.7a.965.965,0,0,1,1.4,0L15.3,14A2.354,2.354,0,0,1,15.3,17.3ZM18,25a1,1,0,0,1-2,0V23a1,1,0,0,1,2,0Z" fill="#ffcd64"/>
    </g>
    <path id="Path_211" data-name="Path 211" d="M28.5,8.6,24,5.9V25.8l6.2-10.3A5.021,5.021,0,0,0,28.5,8.6Z" fill="#ff8c64"/>
  </g>
</svg>
