<svg xmlns="http://www.w3.org/2000/svg" width="19.959" height="19.009" viewBox="0 0 19.959 19.009">
  <path id="logout-svgrepo-com" d="M2,6.277A4.277,4.277,0,0,1,6.277,2H11.5a3.8,3.8,0,0,1,3.8,3.8v.95a.95.95,0,0,1-1.9,0V5.8a1.9,1.9,0,0,0-1.9-1.9H6.277A2.376,2.376,0,0,0,3.9,6.277V16.732a2.376,2.376,0,0,0,2.376,2.376H11.5a1.9,1.9,0,0,0,1.9-1.9v-.95a.95.95,0,0,1,1.9,0v.95a3.8,3.8,0,0,1-3.8,3.8H6.277A4.277,4.277,0,0,1,2,16.732Zm15.485,1.7a.95.95,0,0,1,1.344,0l2.851,2.851a.95.95,0,0,1,0,1.344l-2.851,2.851a.95.95,0,0,1-1.344-1.344l1.229-1.229h-8.16a.95.95,0,1,1,0-1.9h8.16L17.485,9.325A.95.95,0,0,1,17.485,7.981Z" transform="translate(-2 -2)" fill="#fff" fill-rule="evenodd" opacity="0.75"/>
</svg>
