<svg xmlns="http://www.w3.org/2000/svg" width="28.774" height="28.773" viewBox="0 0 28.774 28.773">
  <g id="mybets" transform="translate(0.002)" opacity="0.75">
    <g id="ui-gambling-website-lined-icnos-casinoshunter" transform="translate(-0.002)">
      <g id="square-filled">
        <path id="betting" d="M1212.928,294c4.936,0,8.9,2.3,8.919,5.266l.009.009v4.716a9.448,9.448,0,1,1-3.2,17.549,13.088,13.088,0,0,1-5.719,1.223c-4.855,0-8.794-2.253-8.919-5.2l-.009-.168.009-1.641v-.81l-.009-.131a.055.055,0,0,1,0-.066l.009-1.592v-.81l-.009-.131a.055.055,0,0,1,0-.066l.009-1.592v-.81l-.009-.131a.055.055,0,0,1,0-.066l.009-1.592v-.81l-.009-.131a.055.055,0,0,1,0-.066l.009-1.592v-.81l-.009-.132a.054.054,0,0,1,0-.065l.009-1.592v-.8l-.009-.143a.055.055,0,0,1,0-.066l.009-1.582v-.6a2.547,2.547,0,0,1-.018-.264v-.124l.009-.042C1204.135,296.224,1208.073,294,1212.928,294Zm-7.7,23.55.018.14c.27,2.1,3.624,3.852,7.688,3.852a12.692,12.692,0,0,0,4.226-.691l.306-.116-.3-.244a8.127,8.127,0,0,1-.764-.738,14.507,14.507,0,0,1-3.471.41c-3.111,0-5.925-.933-7.535-2.448Zm21.66-.318a5.286,5.286,0,0,1-2.7,1.311l-.261.036v2.953a8.167,8.167,0,0,0,4.8-2.01l.234-.21Zm-6.986.129-2.077,2.084a8.172,8.172,0,0,0,4.568,2.056l.324.03v-2.953a5.257,5.257,0,0,1-2.607-1.055Zm-1.268,4.066.018.011-.072.035-.009.019.036.023.045-.077S1218.647,321.431,1218.638,321.428Zm-2.239-1.81.036.037-.1.022.027.038.072-.06v0Zm-.513-.616.009.013.018.018Zm-.009-.012.009.01h0Zm-.126-.165.081.11h0l.027.031Zm-10.52-3.873.009.114c.261,2.126,3.633,3.877,7.7,3.877a13.648,13.648,0,0,0,2.194-.175l.423-.076-.045-.06q-.216-.318-.4-.655l-.189-.341-.09-.19-.468.051c-.468.044-.944.067-1.421.067-3.111,0-5.925-.933-7.535-2.447Zm12.84-1.017h-2.949a8.186,8.186,0,0,0,1.663,4.383l.2.249,2.1-2.094a5.205,5.205,0,0,1-.962-2.261Zm13.46,0h-2.949a5.275,5.275,0,0,1-.737,2.137l-.153.239,2.1,2.1a8.2,8.2,0,0,0,1.708-4.17Zm-8.209-4.678a4.07,4.07,0,1,0,4.073,4.07A4.065,4.065,0,0,0,1223.322,309.256Zm-18.091,3.1.009.114c.261,2.126,3.633,3.877,7.7,3.877q.472,0,.944-.032l.468-.039-.108-.362-.1-.359-.081-.364-.045-.263-.306.021c-.252.013-.513.02-.773.02-3.111,0-5.925-.933-7.535-2.448Zm8.758,1.531v.1h0l.009.093Zm-8.758-4.131.009.114c.261,2.126,3.633,3.877,7.7,3.877.207,0,.423-.005.638-.014l.315-.018-.009-.131v-.255a5.409,5.409,0,0,1,.018-.541l.018-.271.018-.182-.333.019c-.216.01-.441.014-.665.014-3.111,0-5.925-.933-7.535-2.447Zm11.752-1.67a8.176,8.176,0,0,0-1.834,4.311l-.027.321h2.949a5.283,5.283,0,0,1,.845-2.312l.162-.226Zm12.588-.111-2.086,2.09a5.2,5.2,0,0,1,1.052,2.388l.045.264h2.949a8.18,8.18,0,0,0-1.762-4.506Zm-15.393,3.39-.009.045.009-.053h0Zm.018-.1-.018.085h0Zm-8.964-4.113.009.114c.261,2.126,3.633,3.877,7.7,3.877q.4,0,.809-.023l.4-.029.09-.325c.054-.215.126-.427.2-.638l.126-.313.054-.147-.288.032c-.459.042-.917.063-1.385.063-3.111,0-5.925-.933-7.535-2.447Zm17.488-2.035-.324.03a8.157,8.157,0,0,0-4.325,1.847l-.243.21,2.086,2.084a5.225,5.225,0,0,1,2.545-1.181l.261-.037Zm1.214,0v2.953a5.247,5.247,0,0,1,2.482.961l.216.163,2.086-2.087a8.188,8.188,0,0,0-4.469-1.961Zm-18.7-.554.009.1c.261,2.126,3.633,3.877,7.7,3.877a16.978,16.978,0,0,0,1.978-.123l.369-.047.09-.158a9.636,9.636,0,0,1,1.2-1.5,14.328,14.328,0,0,1-3.633.455c-3.111,0-5.925-.933-7.535-2.447Zm11.662,1.965-.018.014-.18.049-.063.065a.419.419,0,0,1-.063.065l.18-.05C1216.795,306.623,1216.849,306.576,1216.894,306.53Zm3.74-4.536-.171.164c-1.609,1.509-4.433,2.441-7.535,2.441-3.21,0-6.105-.992-7.688-2.586.189,2.149,3.579,3.943,7.7,3.943,4.028,0,7.373-1.727,7.679-3.821Zm-2.1,3.3-.018.011.018-.011Zm.315-.184c-.009.008-.027.015-.036.023h0Zm.638-.317h0l-.027.011Zm.243-.105-.027.014h0l-.018.006Zm.423-.164-.081.031v0Zm.521-.172-.162.049h0l-.162.053.189-.059.135-.042Zm.036-.011-.036.01a.249.249,0,0,0,.036-.008Zm.018-.007v0h0Zm.36-.093-.018,0h0Zm.414-.092-.036.007-.063.013h0Zm.207-.04-.009,0-.117.022h0l-.081.016.216-.04Zm-8.776-8.885c-4.091,0-7.463,1.744-7.7,3.82l-.009.136.009.059v.12l-.009.006v.014l.009,0v.127c.234,2.113,3.624,3.869,7.7,3.869,4.217,0,7.688-1.887,7.706-4.081S1217.172,295.221,1212.928,295.221Z" transform="translate(-1203.998 -294)" fill="#fff"/>
      </g>
    </g>
  </g>
</svg>
