<svg xmlns="http://www.w3.org/2000/svg" width="24.267" height="20.966" viewBox="0 0 24.267 20.966">
  <g id="responsible" transform="translate(-0.5 -2.41)" opacity="0.75">
    <path id="Path_177" data-name="Path 177" d="M12.644,3.41h0a1.8,1.8,0,0,0-1.55.894L1.744,19.87a1.682,1.682,0,0,0-.244.872h0a1.667,1.667,0,0,0,.468,1.163,1.539,1.539,0,0,0,1.124.471H22.2a1.6,1.6,0,0,0,1.571-1.634h0a1.682,1.682,0,0,0-.244-.872L14.193,4.3a1.8,1.8,0,0,0-1.55-.894Z" transform="translate(0 0)" fill="none" stroke="#fff" stroke-miterlimit="10" stroke-width="2"/>
    <line id="Line_12" data-name="Line 12" y2="7.374" transform="translate(12.644 8.676)" fill="none" stroke="#fff" stroke-miterlimit="10" stroke-width="2"/>
    <line id="Line_13" data-name="Line 13" y2="2.109" transform="translate(12.644 17.11)" fill="none" stroke="#fff" stroke-miterlimit="10" stroke-width="2"/>
  </g>
</svg>
