<svg xmlns="http://www.w3.org/2000/svg" width="21.98" height="21.976" viewBox="0 0 21.98 21.976">
  <g id="sport_account" data-name="sport account" transform="translate(5.061 2.061)" opacity="0.75">
    <path id="Path_180" data-name="Path 180" d="M11.609,20.076H7.468a.392.392,0,0,1-.387-.387v-.177a1.694,1.694,0,0,0-1.017-1.544,1.728,1.728,0,0,0-1.828.35l-.14.14a.383.383,0,0,1-.527,0L.618,15.507a.383.383,0,0,1,0-.527l.14-.14a1.614,1.614,0,0,0,.35-1.828l-.037-.037A1.571,1.571,0,0,0-.4,11.991h-.21A.392.392,0,0,1-1,11.6V7.468a.392.392,0,0,1,.387-.387H-.4A1.567,1.567,0,0,0,1.071,6.1l.037-.107a1.626,1.626,0,0,0-.35-1.758L.581,4.055a.386.386,0,0,1-.107-.247.277.277,0,0,1,.107-.247L3.565.61a.383.383,0,0,1,.527,0l.14.14A1.626,1.626,0,0,0,5.99,1.1L6.1,1.062A1.571,1.571,0,0,0,7.081-.411v-.2A.392.392,0,0,1,7.468-1h4.178A.384.384,0,0,1,12-.613V-.4a1.567,1.567,0,0,0,.984,1.474l.107.037a1.626,1.626,0,0,0,1.758-.35l.177-.177a.383.383,0,0,1,.527,0L18.5,3.532a.386.386,0,0,1,.107.247.4.4,0,0,1-.107.28l-.177.177a1.626,1.626,0,0,0-.35,1.758l.037.107a1.609,1.609,0,0,0,1.474.984h.21a.392.392,0,0,1,.387.387V11.65a.392.392,0,0,1-.387.387h-.21a1.567,1.567,0,0,0-1.474.984l-.037.07a1.626,1.626,0,0,0,.35,1.758l.177.177a.42.42,0,0,1,0,.56l-2.984,2.882a.383.383,0,0,1-.527,0l-.14-.14a1.671,1.671,0,0,0-1.828-.35A1.64,1.64,0,0,0,12,19.52V19.7A.4.4,0,0,1,11.609,20.076Zm-3.828-.7h3.511a2.391,2.391,0,0,1,3.968-1.618l2.495-2.495a2.281,2.281,0,0,1-.42-2.425l.037-.107a2.251,2.251,0,0,1,2.038-1.4V7.776a2.363,2.363,0,0,1-2.038-1.4l-.037-.107a2.265,2.265,0,0,1,.42-2.425L15.26,1.346a2.27,2.27,0,0,1-2.425.42l-.107-.037a2.251,2.251,0,0,1-1.4-2.038H7.776a2.363,2.363,0,0,1-1.4,2.038l-.107.037a2.278,2.278,0,0,1-2.425-.42L1.346,3.841A2.285,2.285,0,0,1,1.774,6.27l-.037.107A2.251,2.251,0,0,1-.3,7.78v3.511a2.363,2.363,0,0,1,2.038,1.4l.037.037a2.409,2.409,0,0,1-.42,2.495l2.495,2.495a2.467,2.467,0,0,1,2.495-.42A2.507,2.507,0,0,1,7.78,19.372Z" transform="translate(-3.611 -0.611)" fill="#fff" stroke="#fff" stroke-width="0.9"/>
    <g id="ic-sport-basketball" transform="translate(1.145 4.159)">
      <path id="Path_181" data-name="Path 181" d="M113.783,109.6a4.779,4.779,0,0,1,4.78,4.78c0,.049,0,.1,0,.147a4.785,4.785,0,0,1-4.78,4.636h-.049a4.782,4.782,0,0,1,.052-9.564Z" transform="translate(-109.001 -109.601)" fill="none" stroke="#fff" stroke-linecap="round" stroke-linejoin="round" stroke-miterlimit="133.333" stroke-width="0.9"/>
      <line id="Line_14" data-name="Line 14" x2="4.662" y2="4.662" transform="translate(1.437 1.434)" fill="none" stroke="#fff" stroke-linecap="round" stroke-linejoin="round" stroke-miterlimit="133.333" stroke-width="0.9"/>
      <line id="Line_15" data-name="Line 15" x1="6.69" y2="6.69" transform="translate(1.437 1.434)" fill="none" stroke="#fff" stroke-linecap="round" stroke-linejoin="round" stroke-miterlimit="133.333" stroke-width="0.9"/>
      <path id="Path_182" data-name="Path 182" d="M113.88,109.6a4.779,4.779,0,0,1-4.78,4.78" transform="translate(-109.098 -109.601)" fill="none" stroke="#fff" stroke-linecap="round" stroke-linejoin="round" stroke-miterlimit="133.333" stroke-width="0.9"/>
      <path id="Path_183" data-name="Path 183" d="M255,260.28a4.779,4.779,0,0,1,4.78-4.78" transform="translate(-250.218 -250.72)" fill="none" stroke="#fff" stroke-linecap="round" stroke-linejoin="round" stroke-miterlimit="133.333" stroke-width="0.9"/>
    </g>
  </g>
</svg>
